<svg xmlns="http://www.w3.org/2000/svg" width="40" height="40" viewBox="0 0 40 40">
  <g fill="none" fill-rule="evenodd">
    <circle cx="20" cy="20" r="20" fill="#080808"/>
    <g transform="translate(3.75 12.5)">
      <path fill="#FFF" d="M4.25,3.5 C4.25,3.5 4.25,3.30504286 4.25,3.06555714 L4.25,0.934442857 C4.25,0.694957143 4.25,0.5 4.25,0.5 L12.8501,0.5 C13.0706429,0.5 13.25,0.694957143 13.25,0.934442857 L13.25,3.0656 C13.25,3.30504286 13.0706429,3.5 12.8501,3.5 L4.25,3.5 Z"/>
      <path fill="#06DCF9" d="M3.25,3.5 L0.678571429,3.5 C0.441871429,3.5 0.25,3.30812857 0.25,3.07142857 L0.25,0.928571429 C0.25,0.691871429 0.441871429,0.5 0.678571429,0.5 L3.25,0.5 L3.25,3.5 Z"/>
      <path fill="#FFF" d="M4.25,9 C4.25,9 4.25,8.80504286 4.25,8.56555714 L4.25,6.4344 C4.25,6.19495714 4.25,6 4.25,6 L12.8501,6 C13.0706429,6 13.25,6.19495714 13.25,6.4344 L13.25,8.56555714 C13.25,8.80504286 13.0706429,9 12.8501,9 L4.25,9 Z"/>
      <path fill="#28A0F9" d="M3.25,9 L0.678571429,9 C0.441871429,9 0.25,8.80812857 0.25,8.57142857 L0.25,6.42857143 C0.25,6.19187143 0.441871429,6 0.678571429,6 L3.25,6 L3.25,9 Z"/>
      <path fill="#FFF" d="M4.25,14.5 C4.25,14.5 4.25,14.3050429 4.25,14.0656 L4.25,11.9344429 C4.25,11.6949571 4.25,11.5 4.25,11.5 L12.8501,11.5 C13.0706429,11.5 13.25,11.6949571 13.25,11.9344429 L13.25,14.0656 C13.25,14.3050857 13.0706429,14.5 12.8501,14.5 L4.25,14.5 Z"/>
      <path fill="#A036F7" d="M3.25,14.5 L0.678571429,14.5 C0.441871429,14.5 0.25,14.3081286 0.25,14.0714286 L0.25,11.9285714 C0.25,11.6918714 0.441871429,11.5 0.678571429,11.5 L3.25,11.5 L3.25,14.5 Z"/>
      <path fill="#FFF" d="M24.3968825,7.5 L29.1093948,12.3052953 C29.3065285,12.5063103 29.2949633,12.821223 29.0835633,13.0086725 L27.552469,14.366302 C27.341069,14.5537515 27.009887,14.5427545 26.8127533,14.3417395 L22.25,9.6891517 L17.6872467,14.3417395 C17.490113,14.5427545 17.158931,14.5537515 16.947531,14.366302 L15.4164367,13.0086725 C15.2050367,12.821223 15.1934715,12.5063103 15.3906052,12.3052953 L20.1031175,7.5 L15.3906052,2.69470468 C15.1934715,2.49368969 15.2050367,2.17877699 15.4164367,1.99132747 L16.947531,0.633698013 C17.158931,0.446248501 17.490113,0.457245495 17.6872467,0.658260486 L22.25,5.3108483 L26.8127533,0.658260486 C27.009887,0.457245495 27.341069,0.446248501 27.552469,0.633698013 L29.0835633,1.99132747 C29.2949633,2.17877699 29.3065285,2.49368969 29.1093948,2.69470468 L24.3968825,7.5 Z"/>
      <path fill="#FFF" d="M31.8214286,9 L29.6785714,9 C29.4418714,9 29.25,8.80812857 29.25,8.57142857 L29.25,6.42857143 C29.25,6.19187143 29.4418714,6 29.6785714,6 L31.8214286,6 C32.0581286,6 32.25,6.19187143 32.25,6.42857143 L32.25,8.57142857 C32.25,8.80812857 32.0581286,9 31.8214286,9 Z"/>
    </g>
  </g>
</svg>
